<svg xmlns="http://www.w3.org/2000/svg"  viewBox="0 0 50 50" width="50px" height="50px"><path d="M 9 5 C 6.8026661 5 5 6.8026661 5 9 L 5 41 C 5 43.197334 6.8026661 45 9 45 L 41 45 C 43.197334 45 45 43.197334 45 41 L 45 9 C 45 6.8026661 43.197334 5 41 5 L 9 5 z M 23.511719 7 L 41 7 C 42.116666 7 43 7.8833339 43 9 L 43 41 C 43 42.116666 42.116666 43 41 43 L 37.058594 43 C 36.43597 37.017672 35.19826 29.005471 33.490234 22.253906 C 32.595373 18.716654 31.584231 15.548893 30.433594 13.1875 C 29.858275 12.006804 29.251201 11.023006 28.550781 10.28125 C 27.850362 9.5394939 26.991667 9 26 9 C 23.888 9 22.156827 10.642435 20.621094 12.398438 C 19.08536 14.154438 17.787601 16.171992 17.033203 17.402344 C 11.944201 25.703811 8.5431536 35.00681 7 39.675781 L 7 33.052734 C 10.340957 25.735163 16.252118 13.761517 23.511719 7 z M 26 11 C 26.258333 11 26.617736 11.148006 27.097656 11.65625 C 27.522804 12.106488 27.991272 12.842542 28.455078 13.740234 C 23.547649 16.927677 20.432161 24.074409 18.316406 30.564453 C 16.284374 36.797681 15.401018 41.871501 15.210938 43 L 9 43 C 8.678426 43 8.3806311 42.92005 8.1132812 42.789062 C 8.4975268 41.47529 12.189766 29.129572 18.738281 18.447266 C 19.465883 17.260617 20.725687 15.317092 22.126953 13.714844 C 23.52822 12.112595 25.112 11 26 11 z"/></svg>